/* XPM */
static char *_93d7c2be6fc4cdbbfe719d49842f8a2HVpdot5M5NSf4q5k[] = {
/* columns rows colors chars-per-pixel */
"64 64 207 2 ",
"   c None",
".  c #000704",
"X  c #000A06",
"o  c #000708",
"O  c #010D0A",
"+  c #02120D",
"@  c #08130F",
"#  c #061511",
"$  c #041512",
"%  c #081310",
"&  c #091612",
"*  c #091614",
"=  c #031813",
"-  c #021911",
";  c #051A12",
":  c #061A15",
">  c #051A15",
",  c #0B1A15",
"<  c #0D1A16",
"1  c #091B16",
"2  c #041C1A",
"3  c #0A1D1A",
"4  c #101E1B",
"5  c #032117",
"6  c #03221D",
"7  c #0C221D",
"8  c #0B291F",
"9  c #11231E",
"0  c #042321",
"q  c #0C2622",
"w  c #042A23",
"e  c #0E2922",
"r  c #0C2A23",
"t  c #0C2C29",
"y  c #122622",
"u  c #102822",
"i  c #112E26",
"p  c #132B25",
"a  c #182D27",
"s  c #142D29",
"d  c #182F2C",
"f  c #0A332D",
"g  c #16332C",
"h  c #14322B",
"j  c #1A362D",
"k  c #1A342D",
"l  c #153632",
"z  c #1C3530",
"x  c #163A35",
"c  c #1B3A34",
"v  c #143E3B",
"b  c #1C3D3A",
"n  c #213D35",
"m  c #213F3A",
"M  c #0D4038",
"N  c #17443D",
"B  c #1C423B",
"V  c #1D483E",
"C  c #24423A",
"Z  c #27483E",
"A  c #1E4342",
"S  c #1C4A45",
"D  c #1E4F49",
"F  c #124B44",
"G  c #145049",
"H  c #1F5F56",
"J  c #244642",
"K  c #234A44",
"L  c #2B4C44",
"P  c #244D49",
"I  c #2A4E49",
"U  c #2E5146",
"Y  c #24524C",
"T  c #2C524C",
"R  c #2E5A4E",
"E  c #31544C",
"W  c #37584E",
"Q  c #38594E",
"!  c #305447",
"~  c #265452",
"^  c #2B5551",
"/  c #255A53",
"(  c #2B5A54",
")  c #255C59",
"_  c #2C5D59",
"`  c #335C54",
"'  c #3B5C53",
"]  c #345E59",
"[  c #385A57",
"{  c #27615D",
"}  c #2D625B",
"|  c #33635D",
" . c #3C635C",
".. c #3C685E",
"X. c #2C6761",
"o. c #2B6B64",
"O. c #2F6E69",
"+. c #266560",
"@. c #336661",
"#. c #3D6663",
"$. c #346B64",
"%. c #3B6962",
"&. c #346E69",
"*. c #3D6F69",
"=. c #2F706A",
"-. c #35736D",
";. c #3C726B",
":. c #3E786F",
">. c #36786C",
",. c #3B7571",
"<. c #3B7975",
"1. c #3D7B79",
"2. c #377270",
"3. c #426D64",
"4. c #486B67",
"5. c #426662",
"6. c #41716B",
"7. c #4D746D",
"8. c #49776A",
"9. c #437573",
"0. c #447B75",
"q. c #4D7B75",
"w. c #487779",
"e. c #447F7A",
"r. c #4C7C7B",
"t. c #567E78",
"y. c #3F8278",
"u. c #43827D",
"i. c #4B837D",
"p. c #48897F",
"a. c #4E8277",
"s. c #568277",
"d. c #54827A",
"f. c #5E837A",
"g. c #588A7E",
"h. c #478681",
"j. c #4C8581",
"k. c #4C8B84",
"l. c #4D8D8A",
"z. c #558782",
"x. c #538B84",
"c. c #5C8C84",
"v. c #538F8A",
"b. c #598D88",
"n. c #4E948C",
"m. c #569187",
"M. c #54938C",
"N. c #5B948C",
"B. c #539591",
"V. c #5B9691",
"C. c #549A91",
"Z. c #5C9B93",
"A. c #5D9E9A",
"S. c #648A86",
"D. c #65948B",
"F. c #639B94",
"G. c #6A9C91",
"H. c #639E99",
"J. c #5CA29A",
"K. c #57A095",
"L. c #64A39D",
"P. c #6CA29B",
"I. c #68A196",
"U. c #72A39C",
"Y. c #78A79B",
"T. c #71A89C",
"R. c #65AAA3",
"E. c #6BADA5",
"W. c #6DACA9",
"Q. c #6DA6A0",
"!. c #72AAA4",
"~. c #7DAEA6",
"^. c #73AEAC",
"/. c #7BAEA8",
"(. c #6CB2AA",
"). c #71B2AD",
"_. c #7AB4AC",
"`. c #76B1A6",
"'. c #7BB5B3",
"]. c #76B9B3",
"[. c #7BBBB5",
"{. c #7BBDB9",
"}. c #7AC0BB",
"|. c #86B7AF",
" X c #81B7B6",
".X c #83BBB6",
"XX c #83BDBA",
"oX c #8ABFBA",
"OX c #83C1BE",
"+X c #8BC2BF",
"@X c #87C7C4",
"#X c #8BC5C2",
"$X c #8BC9C5",
"%X c #8DCCC9",
"&X c #93CAC6",
"*X c #93CDCB",
"=X c #99CDCB",
"-X c #99CCC7",
";X c #96D1CF",
":X c #9ED1CE",
">X c #96D2D0",
",X c #9DD5D4",
"<X c #9BD7D8",
"1X c #A2D6D4",
"2X c #A4DBDB",
"3X c #A8DCDB",
"4X c #A4DDE1",
/* pixels */
"                                                                                                                                ",
"                                            W  .C i e r h c                                                                     ",
"                                          8 i j u 6 1 ; = = q b                                                                 ",
"                                        5 - - + @ + + + $ O % $ z                                                               ",
"                                      - + + O O + + + X O O + + > c                                                             ",
"                                    - + + + X O + + + O O O o + - 1                                                             ",
"                                    + O @ - O O + @ + O O O + + + = 2                                                           ",
"                                  - O X + @ + O < & + O O O O $ + + ;                                                           ",
"                                  + + O O + + + 4 , @ O O O O + + + + e                                                         ",
"                                  = O O + ; + + 4 % @ + + O O O O O + 1                                                         ",
"                                c + O O + @ @ + % % @ + O O O X O X O +                                                         ",
"                                g + + O + @ @ + + O + + O + O O X X O +                                                         ",
"                                e O X O + + + O + + + + O + O O O O O + ;                                                       ",
"                              ' 1 O X O O O O O O + + + + @ @ O X X O + ;                                                       ",
"                              L ; O X O + + O O O + + O O @ O X X O O O +                                                       ",
"                              C + X X O + O O O O + + + @ @ X O X X X O + j                                                     ",
"                              n + X o O $ O + O O O - @ @ @ X X X X X O + a                                                     ",
"                              j $ X O O O % % O O + ; , @ X X X X X X O + 9                                                     ",
"                              h $ X X O O % + O X O & , @ + X X X X X O O 7                                                     ",
"                              i = O X X O + + + O O , & @ + X O X X O O O 1                                                     ",
"                              i : + X X O O = $ + + , ; + O X O O X O O O &                                                     ",
"                            Q h 1 + O X O $ = $ + + < @ + + X X X X O O O 1                                                     ",
"                            Z i : + O O + + + ; + + , + + O O O X X O O X 1                                                     ",
"                            Q 8 ; O O O O + + + + + & & @ O O O X o o o O 1                                                     ",
"                             .5 + O O X O X + + + + ; ; + O X X . X X O X & L                                                   ",
"                            ! ; + O X O X X X + + + + @ + O X O X . X X X + C                                                   ",
"                            U - + X X X O X O O O + + + + O X O O X . X O @ ' s.                                                ",
"                          f.U 5 + X X O o o O + + + + + O O O O O X . @ O % 4.P.F.                                              ",
"                          f.L > + X O O o O O + O O O O O O + + + X O + O $ ^ H.(.[..X                                          ",
"                          t.x = + O O o X o O + O O O X O + + + @ X O O O O b V.(.}.OX+X                                        ",
"                        f.7.q $ + @ o O O O O + O X O X + + + + O X O O X O 0 e.E.E.J.&X1X                                      ",
"                        D. .= $ + O + O O O O * + O + + + O + + + O O O X O > &.R.J.M.&X:X                                      ",
"                        S.b $ $ + + O O O X + + + O + + $ O % + @ O X X O X ; | L.l.A.>X*X*X                                    ",
"                      c. .t $ 2 + O + O O X O + + O + + + O % @ O o . . . @ = _ V.1.W.<X;X:X                                    ",
"                      f.E 0 $ $ O O O O O X O O + O $ ; + + @ + @ O o X X X + Y h.1.W.4X2X1X                                    ",
"                    Y.t.U 2 * $ $ O + O O O O O + + ; ; + O + O O o o o O X + B $.1.'.4X4X2X                                    ",
"                    ~.s.J 2 $ O o O $ o O O O + - ; 1 ; + O - @ O X o o X O $ t D 2.XX2X2X3X-X                                  ",
"                    .Xs.x $ $ $ O O + + O + + - ; 9 7 @ O X + O O X o o O O $ q D }  X:X,X,X-X                                  ",
"                  U.oXt.t 2 $ % O o + + + + & & 9 9 7 + X X X @ O o . o O + + 0 ^ _  X*X=X-X-X                                  ",
"                  /.oXr.t $ $ + O o + + O + @ & 5 9 8 + X O X + X . o o % % + 0 ^ _ #X>X>X=X=X                                  ",
"                  .XoXw.0 2 % O O O + + O O $ = = ; < @ O O O X O . X . O % % 0 P @.&X*X>X<X2X:X                                ",
"                  './.9.0 $ $ $ O O + + $ + + $ ; & 3 $ O O O O X X . X o % $ 7 x @.&X$X*X<X1X-X                                ",
"                Q.F.H.9.6 $ $ $ $ + + + + + $ $ $ 1 : @ O O O + @ X . X o % , 7 f *.*X%X$X&X&X#X                                ",
"                Q.V.A.9.2 $ $ $ + O + + + + $ : $ : : $ O O X O X X . X O O 3 2 0 6.&X%X@X@X+XXX                                ",
"                W.W.^.9.2 + $ * $ + + + - + - 1 % 1 1 + O X O O O X X . X @ < 2 0 ,.$X%XOXXXXX XoX                              ",
"              P.'.].'.9.2 $ * 3 $ $ $ = - - ; 1 ; 9 1 + O O O O O X . . X O 3 2 2 *.[.{.[.'. XXXoX                              ",
"              !.{.{.].w.2 $ * 3 * $ : : ; 7 7 7 ; h 7 + + X X X o X . X X O < : 2 } R.W.W.W.W.^.'.                              ",
"              !.{.{.{.w.2 2 3 0 $ 2 2 q > i i e 5 c 8 + O O X X X X . . X X < * 2 ( Z.L.A.B.v.B./.F.                            ",
"              _.].}.@Xw.2 2 3 3 2 2 0 d 6 l l l 5 U i + X X X X X X X o X O * $ > P j.M.l.l.1.<.W.P.                            ",
"            I._.`.}.XXr.2 2 9 7 2 2 l ` f A N V 5 ! j O O X X X X X X X X O * $ = B 0.u.h.e.<.&.H.H.                            ",
"            P.`.L.).).#.2 , 9 7 * 2 K q.F Y T Y w Z k O O X X X X X X X O + * $ $ l 6.i.0.$.$.&.M.H.V.                          ",
"            T.T.K.L.F.P $ , y 3 2 2 T z.F / $./ M B h + O X X . X X O O + * * $ = t ^ r.<.) _ @.k.V.b.                          ",
"            I.I.B.A.V.A 2 2 y q : 2 | b.G X.<.X.$.N s + O O X X X X O X * 9 * * 2 r x *.#.~ ~ ) j.x.j.z.                        ",
"          D.G.m.v.j.V.A 2 2 y y 2 6 #.b.H 1.e.2.m./ r = + O X . X X O O 3 a 3 3 : h h L ] ~ ~ ) i.i.e.z.                        ",
"          G.F.k.j.,.r.P 0 2 s y 3 0 ` M.-.k.y.O.m.6.8 = O O X . X O O + 4 d 8 7 ; h h b ` I T _ r.e.;.q.c.                      ",
"          I.G.j.1.2.w.^ q q y 4 6 0 Y n.k.J.h.<.k.6.5 = % X o o X O O + 3 k p e 1 p i x J I I _ w.r.*.@.7.                      ",
"        g.G.m.i.9.2.&.~ q 7 y 9 2 0 S p.K.(.A.M.j.( 2 $ O O X . X O + + 3 z s p 5 8 8 h j Z L ] 6.0.@.R |                       ",
"        a.m.6.&.&.2.X.P t y y 9 6 t Y y.K.(.W.R.h.S 2 + + X . . X O + $ 3 k d i 5 8 9 p h B K ^ ..*.} Y P                       ",
"        a.a.>.| @.@.] P t 7 y 3 8 x / >.K.R.W.A.&.v 0 % + O X o X O % * 3 d z h 7 9 p a j b Z L ` | } ! L Y                     ",
"        x.p.:...| } ~ A s y y y e C Y o.n.K.n.<.) S t , + O X X O O < 1 3 s n j 9 p a a j E T [  .......} R                     ",
"        N.m.u.>.} ( K b s y y y s J / -.B.B.u.2.{ ( l 2 + O O X O O $ 7 d b m c p q p i x 5.E L B x Q ..3.3.                    ",
"      N.F.Z.p.9._ Y b c d y y y h S { >.l.l.1.O.{ _ l 2 + + O O + + 1 r b K J m s q 8 i I [ 3.7.x 2 U 8.q.                      ",
"      F.L.Z.j.0.$.` B z d s y s h D o.1.C.n.u.o.+.$.P q + + O + + + 1 h ` S T J m q q x ] z.U.!. .t t ..                        ",
"      D.I.Z.x.a.;._ B l y s y l N { 2.K.(.R.B.1.O.w.| t - @ + O + @ > l 3.Y %.^ I t l E q.D.!./.d.b L q.                        "
};
