/* XPM */
static char *_e428e1b4552414798a3f75992730b6e34CykRmEI7vFGRH8[] = {
/* columns rows colors chars-per-pixel */
"64 64 205 2 ",
"   c #150000",
".  c #1D0400",
"X  c #200700",
"o  c #260D00",
"O  c #2D1300",
"+  c #2E1A02",
"@  c #2A190C",
"#  c #311703",
"$  c #331C04",
"%  c #331D09",
"&  c #3B1F09",
"*  c #381C06",
"=  c #3C2105",
"-  c #35220C",
";  c #3B240C",
":  c #3D2B0D",
">  c #2B201A",
",  c #362413",
"<  c #3D2612",
"1  c #3E2A14",
"2  c #3D2B1A",
"3  c #392B22",
"4  c #3F3323",
"5  c #41250B",
"6  c #44290E",
"7  c #492A0E",
"8  c #422514",
"9  c #432B14",
"0  c #4A2D14",
"q  c #432D19",
"w  c #4A2F1B",
"e  c #4C3216",
"r  c #45321C",
"t  c #4B331C",
"y  c #473215",
"u  c #53351C",
"i  c #5A371C",
"p  c #54391D",
"a  c #5A3B1E",
"s  c #513215",
"d  c #433425",
"f  c #4C3522",
"g  c #4C3923",
"h  c #4E3B29",
"j  c #523622",
"k  c #543B23",
"l  c #5B3D24",
"z  c #533D2A",
"x  c #593E29",
"c  c #554124",
"v  c #5C4125",
"b  c #56422C",
"n  c #5C432B",
"m  c #5F4A2F",
"M  c #564635",
"N  c #5D4531",
"B  c #5E4B34",
"V  c #624225",
"C  c #624827",
"Z  c #63452B",
"A  c #65492D",
"S  c #694B2D",
"D  c #6A4A24",
"F  c #6A502D",
"G  c #634632",
"H  c #654B33",
"J  c #6B4D34",
"K  c #654D39",
"L  c #6B4D39",
"P  c #704E33",
"I  c #734F39",
"U  c #6D5135",
"Y  c #67523C",
"T  c #6C533B",
"R  c #665632",
"E  c #715235",
"W  c #705836",
"Q  c #73563C",
"!  c #7A563D",
"~  c #75593D",
"^  c #7A5B3D",
"/  c #7A5837",
"(  c #7F613D",
")  c #6D5542",
"_  c #6E5942",
"`  c #735642",
"'  c #755B43",
"]  c #7B5D43",
"[  c #755E49",
"{  c #7B5E4A",
"}  c #756044",
"|  c #7D6144",
" . c #76614B",
".. c #7D634B",
"X. c #7F6A4D",
"o. c #7D6552",
"O. c #7E6952",
"+. c #776652",
"@. c #805C3D",
"#. c #83623F",
"$. c #825E42",
"%. c #836345",
"&. c #8B6645",
"*. c #876946",
"=. c #8D6B46",
"-. c #83654B",
";. c #89664C",
":. c #85694D",
">. c #8B6B4D",
",. c #926E4C",
"<. c #926842",
"1. c #8E714E",
"2. c #92714E",
"3. c #9B714D",
"4. c #836651",
"5. c #856C53",
"6. c #8B6D53",
"7. c #836D59",
"8. c #8C6F5A",
"9. c #916E52",
"0. c #936F5B",
"q. c #8D7154",
"w. c #847259",
"e. c #8D735A",
"r. c #8E7B5D",
"t. c #937355",
"y. c #997555",
"u. c #967A55",
"i. c #9B7955",
"p. c #94755A",
"a. c #99765A",
"s. c #95795C",
"d. c #9B7B5C",
"f. c #A27B56",
"g. c #A27D5C",
"h. c #A87C57",
"j. c #8E7362",
"k. c #8E7368",
"l. c #947660",
"z. c #987560",
"x. c #957B62",
"c. c #9C7D62",
"v. c #947D6A",
"b. c #9A7E69",
"n. c #A27E62",
"m. c #A27F6A",
"M. c #9D815E",
"N. c #A18057",
"B. c #A3815D",
"V. c #AA835E",
"C. c #978262",
"Z. c #9E8164",
"A. c #9E8861",
"S. c #96816C",
"D. c #9D836B",
"F. c #9D896A",
"G. c #9D8371",
"H. c #9E8870",
"J. c #A38364",
"K. c #AA8464",
"L. c #A68966",
"P. c #AB8966",
"I. c #A5866A",
"U. c #A4856A",
"Y. c #AA866A",
"T. c #A5896C",
"R. c #AB8B6C",
"E. c #B18761",
"W. c #B18C64",
"Q. c #B18D6C",
"!. c #B0876B",
"~. c #AE916E",
"^. c #B2916E",
"/. c #A48772",
"(. c #AA8671",
"). c #A58B71",
"_. c #AB8D73",
"`. c #AB8E79",
"'. c #B18E72",
"]. c #B98F76",
"[. c #AD9174",
"{. c #AF9876",
"}. c #AC927B",
"|. c #B39374",
" X c #B99574",
".X c #B39974",
"XX c #B3957B",
"oX c #BB967B",
"OX c #B4997C",
"+X c #BC9A7C",
"@X c #BA9976",
"#X c #C29B77",
"$X c #AF9680",
"%X c #B49A82",
"&X c #BB9D83",
"*X c #BF9F88",
"=X c #B29782",
"-X c #BDA184",
";X c #BFA489",
":X c #C39E81",
">X c #C3A283",
",X c #C4A589",
"<X c #CCAB8A",
"1X c #CFB193",
"2X c #CBB198",
/* pixels */
" .: w.XXm.p.` l.*X_.u.[.Q 9 l.R.n.-.J x x 4.}.x.U.Z.s.L.p.` Y b M M O l |.J ;.c.d.y.d.q.Z Q 5.b.a.;.^ s 6.R.>.n.U.c.:.d.a.c.9.@.",
"T p 4.XX$.P l p.4.>.*.s.K 8 5.[.P.%.-.8.T ) _.e.A.:.] ' ` L k t r k W q.d.9.P -.-.l c S A | -.:.y.c.9.E 9 | Y.9.l t x ' -.6.z.] ",
"-.T E ] ` 8.] U { >.%.} k + N ).a.U.;.x.T T l.I.d.] ] ^ ;.8.` 4.M.u.L.L.&.R.;...;.G Q 9.J.Z.t.| t.t.l.8.j -.v.j f r 1 < z z L G ",
"5.8.;.Z ;.p._.:.v.(.A.:.K 8 f F.c.c.Q 4.H 0 k l i.,.y.9.n.c.0.c.{.B.2.*.| q...m l.$.c.c.J.a.i.d.i.P p...t   O ' D.)...m { H N ` ",
"y.p.9.%.a.] R.Z.4.Z.L.d.e.N w 4.XXZ V ` Z v =Xb.g.g.t.y.9.$.$.] t.p.p.Z.S.8.f 8 H ! J.K.L.y.,.%.>.! H t ..w.8.D.B.~.2.t.6.%.P E ",
"J.c.] 6.:.:.a.] ;.s.M.Z.b.` p T 4.l.R.+XE p./.7.Q.E.2.y.t.>.n.;.V i j L ` j., ` c.a.d.>.i.g.y.>.$.! p j.Z.8.t.c.M.3.y.^.t.d.d.%.",
"n.!.0.a.A ~ 6.] _.Y.B.L.U.8.-.*.J -X_.J.l 6.j b #XV.f.i.2.J.+XY.K.>.A g = m 8 9.P.g.y.t.a.J.;.$.Z { H p.p.9.L.V.V.B.e.M.s.s.a...",
"#Xn.a.p.J C y.a.Y.i.=.g.n.a.Z.d./.p.n.>.8.;.k r #Xf.^.u.P *.i.p.3.R.M.~ e 5 ] oXf.y.&.&.%.9.9.R.L ] ..{ (.n.3.h.A.-Xs.} $Xj._ O.",
"a.XXa.%.| C q.s.s.X.H O. .8.x.e.9.] 9.Y.f.f.%.p ! J.3.@.S a Q b.J.d.).~ n n.].!.g.K.K.@.t.;.6.L.q.S Z ;.! J.i.y._.OXi.i.d.9.$.8 ",
"` &X_.p.~ W d.Z.u.M.t.c.] ~ *.t.n.] 8.:X3.<.q.-.! S u.t.( ! ! _.|.K.U.Z 0 oXL.K.g.g.g.P.&.%.%.] u.6.Q I Z 0.c.p.p.c.'.%.$.9.x ) ",
"4.oXU.z.J l I a.D >.J.'.i.t.2.,.a.J L &Xh.3.t.p.&.>.t.#.u.>.Z e.|.c.R.Z.0 E +XY.B.J.Y.g.%.s.;.*.*.Z.0.4.` ] z.*Xp.-.x._.p.;.6...",
"9 8.p.` J 9.;.I U u.T.L.n.J.g.d.g.' j c.oX!.g.e.i.'.a.*.s.-.] p.>.A.T.d.K.S i.L.d.Y.|.J y._.4.J.,.t.-.8.{ 8 w 8.,Xt.$.^ b.8.0 7.",
"x L ' J 6.p.0.z._ Y T H l n { D.g.8.g v ].Q.d.p.K.>.t.d.J i -.t.v R .Xs.@XU.;.U.n.d.>.S d.R.9.9.>.^ x L 7.K h G T.Z._.e.Y t ; T ",
"q.I.R.H ] U.z.4.) - q k k 9 x [ *.4.k % ].:Xn.9.g.! %.P i J C Q S = :.+Xi.R.J.p.).-.p 6.d.J.'.%.9.a.T 8 f ..G 8 p T OX%X1 ; e.A ",
"d.d.R.6.c.U.Q Q w.k ' p.p.$.` G ^ | ) w J.:Xn.a.i.d.$.s ] J.~ %.7.A $ t.(.p.{ { 6.H A Z.p.U.'.t.:.Z.x.r - `.R.5.S c ..1 , x.O.X.",
"g.d.,.J Q Z.T E H i 9.>.$.a.m.$.E _ +.z Z >.@.n. X#X9.$.8.:.%.q.S...v U %.J n N 9 0 D.p.c.T.*.>.:.5.C.b $ ).R.n.d.q.w.4 r w. .5.",
"K.'.U.I.p.-.n.n.-.U.z.t.a.6.1.( m J C k t g 2 k.@XK.V.d.,.a.6.>.f.9.5.L z N G Q - l T.,.d.|.s.^ ( u.5.r f _._.P.p.' 7., % O.m U.",
"d.U.J.U.U.p.J.n.9.Y.n.J.d.*.>.%.Y n l T ' T t H '.P.d.d.|.L.%.>.n.;.p.Z x D.l.Q K K S t.@XK.U.-.*.:.e.Y O b.;.i.T ] Y 8 o.$X5...",
"n.n.6.-.x.6.a.d.B.g.d.K.R.Y.B.&.H w S T._.c.] A k 5.T.6.p.d.6.-.p.l.' ; J XXU.d.D.6.U P d.^.d.^ ~ x...N . p.(.S *.q.m r G.XXs.*.",
"Y.J.0.' p.:.t.n.f.V.!.V.t.t.s.-.J 5 J oX@XR.L.1.t r T Y ' U.U.Z { K o 9 x._.|.g.c.c.-.i ^ R.U.:.Y l c ) K n 6.] d.| ` ` }.%XZ.R.",
"R._.}.D.$XU.p.Y.P.g.B.d.>.>.9.8.{ * A R.K.g.L.>.7.1 t N ' ] :.U  .9 j }..XJ.+Xt.t.).| %.| | T.a.H ; s.).OXT j b.L.-.Q 4.o.l.Z.|.",
"R._.XX`.`./.p.c.R.t.t.>.! S E 9.) * $. XK.3.>.( e...' p k 5 k :.) 1 5.,X|.R.B.i.d.K.s.d.-...q.-.q :.+XJ.T.d.A ` Z.x.' o.f v U.T.",
"0.:...5...e.] 6...X.4.U u 0 l 9.B ; d.oX!.g.>.t.p.s.4.0 J J T } [ y C W i.+Xs.p.y.&.U.6.J b.:.| v ;X|. X X XJ.4.U -.o.7.N k x.A.",
"S u 0 N n 8.Q %.B b p : Q '._.R.w.1 5.p.Y._.s.T.J.*.>.Q Z.[.}.e.F.6.>.#.E t.J.q.f.t.a.w.k ` -.J ; s.^.V.N.^.n.0.' v K h h q m 4.",
"> 3 2 K 8.;.p.m.&.;.< x oX^.!.+XT.s.E a |.c.%.c.B.t.*.-.c.|.U.q.s.T.c.a.J 8...~ | c v Y  .n f N R T M.Z.;.n.U.] b v ^ *.Q K h d ",
"f ) $.p.g.g.g.a.&.] , 4.!.n.g.'.Z.c.*.a d.a.| 6.1.q.s.y.q.a.6.>.w.d.c.9.;.] H 1 S v J ..s. .O Y ).u.T.i.$.@.L ) f }.*.|.XXb.n - ",
"Y.P.n.g.f.f.g.&.,.;.f v.9.y.i.x.Z.s.s.V 6.s.%.| J.a.s.y.a.s.>.6.q.*.c.p.p.| p R 1X[.t.-.T l 9 c.y.L.Z.>.;.;.L q _ Z.~.R.b.6.[ r.",
"^.d.i.g.t.>.2.-.y.p.K { P f.i.9.c.%.t.! p.i.| %.{.u.>.6.p.d.a.c.^ %.s.E Z s.t 4.+XQ.R.[.%.= ` 8.g.R./ / $.0.x.- G Z.i.d.0.u s.{.",
"J.t.s.:.A R X.s.i.x.[ j J K.,.t.*.E >.-.t.a.*.4.1.*.t.q.%.] -.U.a.:.%.~ H ~ 8 e.P.B.J.L.%.u p.c.J.E F d.m.m.l.1 H 1Xd.i.0.` ;.J.",
"T.A.s.K h [ s.U.!.c.o.k ,.n.%.s.E Q 8.q.6.t.s.d.^ %.Z.d.>.^ ] t.U.J.%...~ 6 Z }.^.^.R.R.x.-.l l.'.e W P.g.m.8.U H /.OXs.$.L ] .X",
"a.s.p.' 5.).U.g.!.c.[ T Y.K.,.a.] ^ %.d.d.q.c.K.t.1.d.J.J.d.-.-.^ n.*.A v m -.U.|.T.J.c.p.$.0 D.U.m ( {.P.i.*.c < K 5.7.{ < Z.L.",
"|.R.c.-.1.i.=.3.y.p.G [ Y.g.!.a.i.~ V d.R.>.a.U.L.d.d.s.d.Z.6.>.&.a v } -.x.H /.+XZ.R.(.x.x K `./.' : s.!.&.|.>._ T N f o.G.A.^.",
"G -.c.J.a.P $.i.J.;.l.5.u Q -.K.n.d.^ 5 p.c.t.P.~.>.>.Z.0.n.;.! ' & c.-XL.t.R A.P.Y.s.D.] 7 g.'.J.^ A l T q.R.J.(.Z.Z.%.d.i.Z.-.",
"J l J a.R.;.$.g.] k G Y L -.! ^ ^ a.s.J 9 p.J.0.c y k ' ..6.b.{ Q j Z..XF W H p.*.*.^ x.0 p d.R.i.p.-.l.J 4.Z.J.x.s.U.>.d.s.$.l ",
"&XU.;.6.c.R.g.c.>.J ..p._.).y.y.J.1.8.s.k 6.$.j c M < 1 N f K j -.] ~ P | s.^ >.>.6.w...t ; | ).U.D...e.l L p.c.n.5.a.y.>.] Q 6.",
").a.! -.-.9.-.c.] ] c.c.[.J.t.y.%.W } Y < X w 4.C.{...H 8.Y K ` 4.p.5.V M.d.Z.c.s.R.T.} ` + t =Xc.c.L ' ` 9 9 S ] E *.c.6.$.l ` ",
"-.t.n.J.p.t.J ^ J 5.U.s.L.d.y.e.q.U m j O.T w.`.d.~.u.>.y.y.E %.d.8.m.9.>.:.XX-.:.T.x.s...n < S.(.u n l.r m XXZ.-.;.>.9.t.U.E s ",
"i $.d.-.:.I.8.%.0 -.T.i.d.y.t.s.6.U m 5.T.S.J.c.L.3.f.Y.>.d.t.>.~.a.;.0.Q ;.a.A p.a.M.Z.8.' b h | U.).`.n U.[.Z.K.J.-.4.9._.J.>.",
"J.,.a.;.:.%.U >.t :.J.J.y.d.u.d.m.-.J s.x.u.y.i.J.y.>.i.q.:.p.s.g.L.;.6.J ! ^ ;.R.i.K.d.J.-.` % | -XXX4.0 OXJ.2.s.6.Q 0.p.-.d.U.",
"Y.y.U.$.-.] Z Y K ( ! >.2.Z.>.T ` ;.] e.J.u.i.g.I.+Xw.4.`._ T O.^.Y.n.;.G I p.d.P.B.=.J.K.p.) n .XR.U.:.T U.~ ~ B.s.I ;.-.H >.1.",
"E.g.P.6.G ] p.c.[ 9 ' Z...~ U v I L l ' ] d.q.B.R.Z.L.=.&.t.m p 1.{.A.:.%.S l.U.J.^ / #.$.| t Y -X>.a.a.n.%.:.| q.} T *.A 7 ^ p.",
"3. XJ.l j _.c.p.q m [.p.-.q.Q /.U.v...] l c.T.:.d.'.B.&.R.~ } 2 :..XF.:.] E J.`.t.d.1.2.-.| K T e.s.U.9.;.t.A.>.w.S | ^ :.q.Q Z.",
"P.Q._.Z.u G U.! 9 x.[.n.K.J.s.a.K.z.p.d.C ..).-Xn.*.n.P.q.| 5.Y 4.&XT...Z Z | -.m L.Z.R.c.5.7._ O.S.S.c.p.U.T.| A R s.} 6.a.S J.",
"9.a.c.R.U.G z.Z 5 D.|.'.d.y.|.q.9.i.a.n.W 1 2 x.XXn.%.8.e...r } 8 6.w.{ E -.] Q _ H.Z.Z.e.) K z M k t ` { Q d.s.v q.u.s.a.%.] 5.",
"A Z R.d.(._.p.k | c.(.g.g.Y.a.>.&.d.i.Z.e.Y r H U.XX/.l. .* k x j { ] K ` R.A.x.[ n k 0 0 9 8 f - 1 T S.U.H ;.~ t u.s.q.U v >.>.",
"Q 9 ' _.d.I.z.x Y OX-X[.n.%.-.x.2.*.p.c.6.' x < Z L XXb.$ f 5.K b.U.l.Q -.).:.| Y + m T %.5.o.l.d.Z.XXc.x.] p.U F q...A u V ] ] ",
"7.T o >._.0.4.` r ..' ;.q.*.A.5.>.-.t.Z.v.e.w.8.y v K 2 , /.` 6.U.n.U.>.c.D.U k m * e.|.OX&XU.l.T.K.Q.a.5...} r e.M.~ p ~ p.%.U ",
"v.w.A E P ! p.L r + t 6 = ;.x.T d.).c.6.U.p.;.a.l.S. ., z 4.] c.'.2.*.l ~ q.~ } m q Z.oX_.].'.8.W.f.K.J.| U A B m [.s.Q -.%.%.t.",
"B.u.q.n K G ] : y -.d.Q L u ] ` q.>.J.t.1.:.K.d.v. . ., % O.T Z.(.J.z.c.8.-.p.[.X.; C.)._._.p.A.4.l.).e.W 7 ;.oXz K x.s.9.5.6.-.",
"B.( C.g j 0.e.R ! x.c.XX).v.0.m.-.%.:.p.c.q.p.c.w.` N - w.%X| q.J.U.(._.U.e.J.@XZ.H s.`.Z...-.x.` 9 W | u q.U.Q  .b.[.y.B.i.6.q.",
"Z.:.w.r u m.U.A.J.6.5.J n.5.l.(.x.c.-.Q -.e.5.c.q.w.n ; [.=X] a.U.t.*.] p.8.d.J.T...Q 6.c...X.~ j m T q.J Z.>.V A | M.1.M.M.t.*.",
"..T + t 9.oX XB.c.s.^ Z ` p.` 4./.b.Q n v ' ] 4.Q :.' ` =X[.c.'.{.u.q.Q p.t.s.Z.p.c.x.s.s.w.5.} ' -X6.>X+XT.d.c.c = J ~ %.s.c.J ",
"U k : H.,X].|.i.s.T.d.| -.c.] ] [ n v [ H n G ..-.] T e.5.s._.Q.~.}.-XF.).s.q.A.p.R.XXp.5.q.W ~ r.6.V Y.'.J._.>.0.w j x G { 5.G ",
"' 1 T 2X].R.P.g.J.Z.U.*.6.;.e.p.k j ' b...) ..X.x...` 4.r A J.U.L.[.%X_.).x.' u.U.8.x.6...:.v ` D.T ;.Q.K.K.M.^ z.-.` t j f x ) ",
"6.8 H ..6.#Xm.p.t.Z.q.T.Q 8.8.c.m ..D.Z.6.4.e.7.'  .7.O.v n w.Z.w.6...o.6.l.U s.e...s.w.` ..Q U.D.} n. XK.g.,.6.,.t.e.m H N S ] ",
"0.b.w.V ! m.9.a.u.d.>.%.V E Z.c.R e.T.e.r.T ~ :.} 7. .h b q Z :.l x t n N ' f e.w.~ W ] ~ p.t.Z.T.U V g.g.n.|.).W.2.1.~ q..X|.>.",
"-.|.5.6.A -.w.K X.p k K T Y 7.B %.%.t.t.t.4.8.l 4.p.l.{ B M d 4 @ @ 2 v b 2 , d j H g < p.'.a.%.c.>./ s '.n.,.a.K.u.>.*.d.|.I.c.",
"Z.y.d.s.w.Q l t m Z E } 5. .< ) d.a.R.c.6.:.U ..'.(.U.v.7.1 , 2 b Y X. ...U n r t v , Y m.Y.J.R.s.s.-.a 9.d.$.>.>.*.6.>.6.a.>.-.",
";.| J.:.%.6.m Z +X|.d.>.-.Z # 8.Y.R.c.t.| -.H q.U.m.p.5. .- _ S.).).~.M.M.A.).C.| w.c r.0.9.,.J.d.s.6.Z ] 0.! $.u.*.>.q.d.c.8.>.",
"*.6.Z.%.m p.v T <X|.~.T.:.0 H p.J.U.^ %.%.:.6.E t.'.I.p.] Z 5.b.q.| *.u.u.U.F.s.s.D.R ( I ,.,.y.J.| ;.^ ;.y.@.$.L.9.6.t.d.J.c.T.",
"U.9.:.6.U T y .. Xd.R.P.! 0 -.T.U.-.J 1.Z.a.K.a 9.XX|.d.;.l.8.>.0.$.L 6.w.(.c.c.a.q.( u Z i.3.1.q.U t.>.a.t.6.9.t.>.a.p.-.%.-.J.",
"J.6.6.-.Q p n _.~.B.oX&Xc.:.j ] }.v Q U.XXZ.a.V e._.`.Z.' $.Z ! (.z.k l L (.(._.R.a.5.p $.J.1.1.^ U d.t.i.6.n.c.*.:.a.d.q.%.] ;.",
"t.6.t.U H C R `.#XR.c.x.p.4.l 6._.m Z U.|.a.t.^ e T ..v.6.{ Q ;.n.6.x t 5./.U.U.Y.i.6.J Y.].c.C.%.~ | d.a.;.d.J.u.q.i.c.J.c.:.-.",
"E V l S ' U.T v.@XR.L.U.p.l ) b.D...6 q.J.t.J.>._ ) u Q 6.{ 8.;.t.P u y U.p.;.,.g.n.%.I (.m.s.d.u.^ v J.g.;.9.d.J.d.J.x.i.s.6.t."
};
