/* XPM */
static char *_79144bda7674cd8975262e4626e0ef2uPvAOyBUhxkQbSAT[] = {
/* columns rows colors chars-per-pixel */
"32 32 191 2 ",
"   c #2E1803",
".  c #2E1B0C",
"X  c #331D0E",
"o  c #391F0A",
"O  c #301712",
"+  c #351F14",
"@  c #3B210D",
"#  c #352114",
"$  c #3D2514",
"%  c #372419",
"&  c #3C2519",
"*  c #3C281F",
"=  c #43240F",
"-  c #49270C",
";  c #47290E",
":  c #48290C",
">  c #582C07",
",  c #542C0C",
"<  c #592E0D",
"1  c #56310E",
"2  c #5B320E",
"3  c #432613",
"4  c #442915",
"5  c #4C2B13",
"6  c #432A18",
"7  c #4A2D1B",
"8  c #472717",
"9  c #542D13",
"0  c #5A2E12",
"q  c #592F19",
"w  c #4F3011",
"e  c #4E321B",
"r  c #553114",
"t  c #5B3314",
"y  c #5D3814",
"u  c #55321B",
"i  c #5C351A",
"p  c #57381C",
"a  c #5D391B",
"s  c #613614",
"d  c #623915",
"f  c #61361B",
"g  c #623A1C",
"h  c #462F23",
"j  c #4D3321",
"k  c #5B3520",
"l  c #5C3A22",
"z  c #573C29",
"x  c #5B3D2B",
"c  c #523624",
"v  c #503E30",
"b  c #623B22",
"n  c #683F29",
"m  c #63411B",
"M  c #4F423A",
"N  c #5E4534",
"B  c #51453C",
"V  c #52483F",
"C  c #5D473A",
"Z  c #684120",
"A  c #62432D",
"S  c #654224",
"D  c #664733",
"F  c #664C37",
"G  c #674A36",
"H  c #67503E",
"J  c #725034",
"K  c #725438",
"L  c #634F44",
"P  c #655041",
"I  c #6D5B4E",
"U  c #6C5243",
"Y  c #735B4D",
"T  c #785D4A",
"R  c #795B42",
"E  c #7B6354",
"W  c #7A6A5D",
"Q  c #7D6A61",
"!  c #846C5B",
"~  c #876C56",
"^  c #8E7565",
"/  c #8E7863",
"(  c #83756E",
")  c #8A766B",
"_  c #8B7A6D",
"`  c #837366",
"'  c #927B6C",
"]  c #987F6B",
"[  c #947964",
"{  c #877571",
"}  c #857870",
"|  c #8C7B73",
" . c #987D72",
".. c #8E8075",
"X. c #938076",
"o. c #9E8273",
"O. c #91847C",
"+. c #948985",
"@. c #9C8D83",
"#. c #948F89",
"$. c #988E8C",
"%. c #9B8681",
"&. c #A68F87",
"*. c #A29187",
"=. c #A3948D",
"-. c #AA958C",
";. c #A8988B",
":. c #A39896",
">. c #A59E9A",
",. c #AB9D9D",
"<. c #A69995",
"1. c #B69987",
"2. c #A9A29C",
"3. c #B6A59A",
"4. c #ADA4A1",
"5. c #AEABAB",
"6. c #B3A5A2",
"7. c #BAACA3",
"8. c #B4ADAD",
"9. c #B7AAA4",
"0. c #AEB2B3",
"q. c #B3B2B2",
"w. c #BBB5B3",
"e. c #BDB8B5",
"r. c #B7B6BB",
"t. c #BDBABC",
"y. c #B3B8BC",
"u. c #C9B39E",
"i. c #C8B5A7",
"p. c #C4B4AB",
"a. c #CDB7AA",
"s. c #CCB9AB",
"d. c #C9B9B2",
"f. c #C3BDBE",
"g. c #C2BBB3",
"h. c #C3C1BD",
"j. c #D1C3BA",
"k. c #BEBBC2",
"l. c #C1BCC0",
"z. c #C3C3C5",
"x. c #C8C4C2",
"c. c #C6C4C8",
"v. c #CCCACB",
"b. c #D2C7C1",
"n. c #D4CAC5",
"m. c #D2CCCC",
"M. c #DBD3CE",
"N. c #D5D2CA",
"B. c #CECDD5",
"V. c #D5CFD1",
"C. c #D3D3D5",
"Z. c #DCD9D6",
"A. c #D3D5DA",
"S. c #DBD7DC",
"D. c #DCDBDB",
"F. c #D9D3D3",
"G. c #E7D6CC",
"H. c #E8D7D0",
"J. c #EBD9D2",
"K. c #E3DDDB",
"L. c #E9DEDA",
"P. c #EBE3DD",
"I. c #F0E6DD",
"U. c #FCECDF",
"Y. c #DCDCE1",
"T. c #E8DDE1",
"R. c #E3DEE2",
"E. c #DFE2E5",
"W. c #E4E3E2",
"Q. c #EBE6E5",
"!. c #E5E4E9",
"~. c #EAE5EA",
"^. c #E7E8EA",
"/. c #ECEBEC",
"(. c #F3E9E7",
"). c #F2EDEB",
"_. c #FEEFEA",
"`. c #FAEBE4",
"'. c #EFF0EB",
"]. c #F5F1EE",
"[. c #FFFBEE",
"{. c #EDECF2",
"}. c #F4EEF1",
"|. c #EFF0F4",
" X c #F4F3F4",
".X c #FBF4F4",
"XX c #FEFAF4",
"oX c #F4F4FA",
"OX c #F9F6FA",
"+X c #F6FAFC",
"@X c #FDFCFC",
/* pixels */
"'.W./.@X|.^. XOX+XoX~.oX+X+XOX~.{.+X+X@X|.^.+X X@XOX!.{.+X+X~.R.",
" X/.D.Q.P./.@XP.L.}.R.@X~.T.).Z.@X].D.W.P.).@XP.L.(.T.@X~.D.~.Y.",
"Y.t.,.{ | -.@.) } } $.-.| ..( ..;.X._ ..| *.@.) _ _ %.-.| =.w.q.",
"}.@X2.% 6 8 8 3 3 8 8 o $ 4 4 @ = 4 3 ; o $ 4 4 8 $ & h + 9.@XW.",
"(.).O.# c i g a d g f b b a r u p b t t l l k c k l 7 j % 7..Xc.",
"D.h.h.7.i.K 1 2 d d 2 < 9 b g q s i d < t f t t r 7 E a.w.M.v.l.",
"XXXX XXXXXH : d < 2 t s i b i q s g < s t 2 d 2 i 8 *.@X@X XOX/.",
"E.z.5.2.i.F 5 a 0 s , i b n 9 q 0 s < s t 2 > s s 5 o.J.2.4.q.t.",
"E.^.6.* e r a t r t g t 2 s t , r m y y f i a t , r a u $ ;.Q.C.",
"+X@X<.# = r t t a t t s 2 > 2 d r a 1 1 g q 9 s , y , - @ 3.@XA.",
"S.l.:.Q ^ D 5 p y r 1 2 2 d 2 2 t t d d i t t 2 y a A / W g.v.y.",
"oX XXXXXXXY 5 i r y y y 1 m d 2 > 2 g 2 , s s > t : o.[.XX@X XE.",
"}.S.f.n.G.P 4 b y 2 t f f t 2 t d 1 > s f 0 > s t : o.[.N.g.z.B.",
"K.m.$.B P x u t t 0 t t f t t , y t t i i f 0 s i a F I B 2.v.k.",
"}.@X@.. 4 9 i t 0 d g < , i s d t r t a q f i t g a u 3 . j.@X^.",
"D.N.( v F l : d s t < i i i r i g i , t i i , i t a u N C d.F.r.",
"W.Z.T.(.U.E w y > s b i 9 i y t i l i 9 t i t r r r ! U.I.].Y.A.",
"OX XR.Q._.I : y s s f q i i 1 2 , i i i 9 t t i a ; / XXI.K.^.D.",
"D.t.,.{ o.x u 1 2 s t 0 i i r r t i i g t t r i y , R 1.) =.q.y.",
"|.@X,.O 8 r u t 2 s s < s i t t , a i t , a t , , t r = o 3.@XW.",
"^.].+.# j i r m s s 2 < g s 2 y y t r y d t t r 0 i 7 j % 9. Xc.",
"D.z.w.p.a.R w t 2 d s s t s 2 t t i a t y d t 9 0 9 T i.7.M.V.l.",
"+X+XOXXXXXY - t s d s 2 , s 2 2 2 t r r t s 2 2 i : ' XX@X}.@X~.",
"R.l.5.4.p.U 5 i d s 2 s t g 1 t y y , t t s , 2 y 9 ! J.6.8.q.t.",
"~.Q.+.* j S i t t g b 9 b b t < , i g t < , b r 0 a p 7 h 7.~.A.",
" X@X} X u S r t t i i i i i , i s f 0 s t t i i i q 5 5 & j.@XD.",
"S.f.+.` [ J t t 0 t u k k a 2 s g s i 0 0 s f i t 9 A ) Q j.z.0.",
"OXoX.XXX[.~ r 2 0 a a u 5 r 2 d g f b q 0 t t q t 9 ~ [.XXXX+XW.",
"/.C.h.n.J.E - t f b q 9 k q 9 t < t , t < d 0 f b 5 E OXM.h.z.v.",
"D.N.$.B P z 9 a q b q i k i q g t i t i < s 0 q g u N I V 2.z.t.",
"|.@XO.  w i i i i i 9 9 q g i i 9 t a t 0 s f s , i 9 7 # s.@XQ.",
"^.Z._ e i s t a f b i g < t t t t i 9 t 0 t q g g g t D j s.P.e."
};
